<?xml version="1.0" encoding="UTF-8" standalone="no"?>
<svg
   width="767"
   height="805.89648"
   viewBox="0 0 767 805.89648"
   fill="none"
   version="1.1"
   id="svg92"
   xmlns="http://www.w3.org/2000/svg"
   xmlns:svg="http://www.w3.org/2000/svg">
  <defs
     id="defs96" />
  <g
     id="g592"
     transform="translate(-161,-169.60352)">
    <path
       id="path518"
       style="fill:#241f1c"
       d="M 558.8125,279.02539 C 557.97263,279.33078 545,284.00195 545,284.00195 V 284 c 0,0 -12.97262,-4.67117 -13.8125,-4.97656 a 205.5,205.5 0 0 1 -1.83008,5.11718 205.5,205.5 0 0 1 -18.99023,35.5293 205.5,205.5 0 0 1 -25.55664,31.14063 205.5,205.5 0 0 1 -31.14063,25.55664 205.5,205.5 0 0 1 -35.5293,18.99023 A 205.5,205.5 0 0 1 379.5918,407.05078 205.5,205.5 0 0 1 339.5,411 205.5,205.5 0 0 1 299.4082,407.05078 205.5,205.5 0 0 1 260.85938,395.35742 205.5,205.5 0 0 1 225.33008,376.36719 205.5,205.5 0 0 1 194.18945,350.81055 205.5,205.5 0 0 1 168.63281,319.66992 205.5,205.5 0 0 1 161,305.38867 v 2.22852 L 545,975.5 928,309.35742 v -2.09765 a 205.5,205.5 0 0 1 -6.63281,12.41015 205.5,205.5 0 0 1 -25.55664,31.14063 205.5,205.5 0 0 1 -31.14063,25.55664 205.5,205.5 0 0 1 -35.5293,18.99023 A 205.5,205.5 0 0 1 790.5918,407.05078 205.5,205.5 0 0 1 750.5,411 a 205.5,205.5 0 0 1 -40.0918,-3.94922 205.5,205.5 0 0 1 -38.54882,-11.69336 205.5,205.5 0 0 1 -35.5293,-18.99023 205.5,205.5 0 0 1 -31.14063,-25.55664 205.5,205.5 0 0 1 -25.55664,-31.14063 205.5,205.5 0 0 1 -18.99023,-35.5293 205.5,205.5 0 0 1 -1.83008,-5.11523 z M 545,371.98633 a 205.5,205.5 0 0 0 15.50781,20.71484 205.5,205.5 0 0 0 20.73242,20.73242 205.5,205.5 0 0 0 13.07618,9.78907 L 545,888 Z" />
    <path
       id="circle84"
       style="fill:#241f1c"
       d="M 639.66797,249.81836 A 119.5,119.5 0 0 0 750.5,325 119.5,119.5 0 0 0 870,205.5 119.5,119.5 0 0 0 864.42188,169.60352 c -14.8657,5.24949 -29.98504,10.5607 -44.51368,15.71484 -29.76356,10.55884 -58.61785,20.8406 -85.73632,30.53516 -37.89331,13.54643 -65.64578,23.56574 -94.50391,33.96484 z" />
    <path
       id="circle404"
       style="fill:#241f1c"
       d="M 226.0625,169.77344 A 119.5,119.5 0 0 0 220,205.5 119.5,119.5 0 0 0 339.5,325 119.5,119.5 0 0 0 450.33203,249.81836 c -28.8581,-10.39909 -56.61063,-20.41843 -94.50391,-33.96484 -27.11844,-9.69455 -55.97279,-19.97829 -85.73632,-30.53711 -14.37045,-5.09803 -29.32808,-10.35129 -44.0293,-15.54297 z" />
  </g>
</svg>
